# xmcd
#
# Track frame offsets: 
#        150
#        28529
#        50194
#        73387
#        96816
#        117149
#        133879
#        158538
#        182487
#        205921
#        230279
#        253378
#
# Disc length: 3774 seconds
#
# Revision: 0
# Processed by: cddbd v1.5.2PL0 Copyright (c) Steve Scherf et al.
# Submitted via: ExactAudioCopy v0.99pb4
#
DISCID=ac0ebc0c
DTITLE=dj StORm - REAL LOVE (le musique despion)
DYEAR=2007
DGENRE=House
TTITLE0=4th child - now i found you (dj pedro remix)
TTITLE1=paris avenue - feel it (danny corten remix)
TTITLE2=roger sanchez - not enough
TTITLE3=alex gaudino vs. nari and milani - year of the cat (original m
TTITLE3=ix)
TTITLE4=Atrocite Feat. Mque - Only You (Deniz Koyu Mix) 
TTITLE5=F and Martinengro - Lets Go Out Tonight (Limelight Remix)
TTITLE6=Hardsoul Feat. Berget Lewis - Deep inside (Dj Antoine remix)
TTITLE7=Antoine Clamaran - Relax (Eddie Thoneick Remix)
TTITLE8=Eric Smax and Thomas Gold feat Hilary Duff - Stranger (Wawa Remi
TTITLE8=x)
TTITLE9=David Guetta - Love Is Gone (Fuzzy Hair Remix)
TTITLE10=David Gomez - Justify (Electric Dub Mix)
TTITLE11=2 Special - Electro voice (Original mix)
EXTD=
EXTT0=
EXTT1=
EXTT2=
EXTT3=
EXTT4=
EXTT5=
EXTT6=
EXTT7=
EXTT8=
EXTT9=
EXTT10=
EXTT11=
PLAYORDER=
